<svg version="1.1" xmlns="http://www.w3.org/2000/svg" xmlns:xlink="http://www.w3.org/1999/xlink" width="105.03183" height="105.03183" viewBox="0,0,105.03183,105.03183"><g transform="translate(-187.48408,-127.48408)"><g data-paper-data="{&quot;isPaintingLayer&quot;:true}" fill="#ffffff" fill-rule="nonzero" stroke="none" stroke-width="0" stroke-linecap="butt" stroke-linejoin="miter" stroke-miterlimit="10" stroke-dasharray="" stroke-dashoffset="0" style="mix-blend-mode: normal"><g><g><path d="M187.48408,144.14025c0,-9.19895 7.45722,-16.65617 16.65617,-16.65617c9.19895,0 16.65617,7.45722 16.65617,16.65617c0,9.19895 -7.45722,16.65617 -16.65617,16.65617c-9.19895,0 -16.65617,-7.45722 -16.65617,-16.65617z"/><path d="M259.20358,215.85975c0,-9.19895 7.45722,-16.65616 16.65617,-16.65616c9.19894,0 16.65617,7.45722 16.65617,16.65616c0,9.19895 -7.45722,16.65617 -16.65617,16.65617c-9.19894,0 -16.65617,-7.45722 -16.65617,-16.65617z"/></g><g><path d="M275.85975,127.48409c9.19894,0 16.65617,7.45722 16.65617,16.65616c0,9.19895 -7.45722,16.65617 -16.65617,16.65617c-9.19894,0 -16.65617,-7.45722 -16.65617,-16.65617c0,-9.19894 7.45722,-16.65616 16.65617,-16.65616z"/><path d="M204.14026,199.20358c9.19895,0 16.65617,7.45722 16.65616,16.65616c0,9.19895 -7.45722,16.65617 -16.65616,16.65617c-9.19894,0 -16.65617,-7.45723 -16.65617,-16.65617c0,-9.19894 7.45723,-16.65616 16.65617,-16.65616z"/></g></g></g></g></svg>