<svg version="1.1" xmlns="http://www.w3.org/2000/svg" xmlns:xlink="http://www.w3.org/1999/xlink" width="105.03184" height="105.03184" viewBox="0,0,105.03184,105.03184"><g transform="translate(-187.48408,-127.48408)"><g data-paper-data="{&quot;isPaintingLayer&quot;:true}" fill-rule="nonzero" stroke="none" stroke-linecap="butt" stroke-linejoin="miter" stroke-miterlimit="10" stroke-dasharray="" stroke-dashoffset="0" style="mix-blend-mode: normal"><g fill="#ffffff" stroke-width="0"><path d="M187.48408,144.14025c0,-9.19895 7.45722,-16.65617 16.65617,-16.65617c9.19895,0 16.65617,7.45722 16.65617,16.65617c0,9.19895 -7.45722,16.65617 -16.65617,16.65617c-9.19895,0 -16.65617,-7.45722 -16.65617,-16.65617z"/><path d="M259.20358,215.85975c0,-9.19895 7.45722,-16.65616 16.65617,-16.65616c9.19894,0 16.65617,7.45722 16.65617,16.65616c0,9.19895 -7.45722,16.65617 -16.65617,16.65617c-9.19894,0 -16.65617,-7.45722 -16.65617,-16.65617z"/></g><g fill="#ffffff" stroke-width="0"><path d="M275.85975,127.48409c9.19894,0 16.65617,7.45722 16.65617,16.65616c0,9.19895 -7.45722,16.65617 -16.65617,16.65617c-9.19894,0 -16.65617,-7.45722 -16.65617,-16.65617c0,-9.19894 7.45722,-16.65616 16.65617,-16.65616z"/><path d="M204.14026,199.20358c9.19895,0 16.65617,7.45722 16.65616,16.65616c0,9.19895 -7.45722,16.65617 -16.65616,16.65617c-9.19894,0 -16.65617,-7.45723 -16.65617,-16.65617c0,-9.19894 7.45723,-16.65616 16.65617,-16.65616z"/></g><path d="M258.39131,171.92441l-22.77455,22.89929c-0.90323,0.90845 -2.10612,1.40859 -3.38771,1.40859c0,0 0,0 -0.00033,0c-0.8009,0 -1.59417,-0.20168 -2.29401,-0.58405c-0.06419,-0.03385 -0.13524,-0.07699 -0.2063,-0.12008l-0.04545,-0.02764c-0.0355,-0.02105 -0.07106,-0.04308 -0.1059,-0.06616c-0.2978,-0.19311 -0.57977,-0.42408 -0.82558,-0.67847l-7.19165,-7.44565c-1.83234,-1.89719 -1.7797,-4.93149 0.11782,-6.76455c0.89625,-0.8657 2.07617,-1.34248 3.32221,-1.34248c1.30989,0 2.53158,0.51893 3.44168,1.46058l3.82564,3.96056l19.34084,-19.44608c0.90449,-0.90977 2.10942,-1.41057 3.39233,-1.41057c1.27236,0 2.47036,0.49387 3.37222,1.3915c1.8702,1.85998 1.87845,4.89533 0.01874,6.7652z" fill="#284a00" stroke-width="0.59874"/><path d="M257.69081,171.22885l-22.77455,22.89929c-1.21845,1.22532 -3.06464,1.44244 -4.50906,0.65407c-0.0632,-0.03385 -0.12409,-0.07205 -0.18591,-0.10919c-0.03193,-0.02011 -0.06386,-0.03819 -0.09513,-0.05858c-0.23619,-0.15365 -0.46063,-0.3333 -0.66495,-0.54487l-7.19132,-7.44499c-1.45662,-1.50828 -1.41518,-3.91187 0.09342,-5.36882c1.50767,-1.45629 3.91088,-1.41452 5.36783,0.09375l4.52587,4.68507l20.05118,-20.16043c1.47866,-1.4869 3.88225,-1.49349 5.36816,-0.01511c1.48723,1.47899 1.49349,3.88258 0.01445,5.36981z" fill="#3cf300" stroke-width="0.59874"/></g></g></svg>